<mxfile host="app.diagrams.net" agent="Mozilla/5.0 (Windows NT 10.0; Win64; x64) AppleWebKit/537.36 (KHTML, like Gecko) Chrome/127.0.0.0 Safari/537.36" version="24.7.6">
  <diagram name="Page-1" id="nqOt4Jb93oQX7smnwAfB">
    <mxGraphModel dx="1050" dy="565" grid="1" gridSize="10" guides="1" tooltips="1" connect="1" arrows="1" fold="1" page="1" pageScale="1" pageWidth="850" pageHeight="1100" math="1" shadow="0">
      <root>
        <mxCell id="0" />
        <mxCell id="1" parent="0" />
        <mxCell id="Asm9NlB4osL4zCwBxvkR-5" style="edgeStyle=orthogonalEdgeStyle;rounded=0;orthogonalLoop=1;jettySize=auto;html=1;" edge="1" parent="1" source="Asm9NlB4osL4zCwBxvkR-1">
          <mxGeometry relative="1" as="geometry">
            <mxPoint x="190" y="220" as="targetPoint" />
          </mxGeometry>
        </mxCell>
        <mxCell id="Asm9NlB4osL4zCwBxvkR-1" value="x&lt;sub style=&quot;font-size: 13px;&quot;&gt;t&lt;/sub&gt;" style="ellipse;whiteSpace=wrap;html=1;aspect=fixed;fontFamily=Georgia;fontSize=13;fillColor=#99FFFF;shadow=1;strokeColor=none;" vertex="1" parent="1">
          <mxGeometry x="120" y="200" width="40" height="40" as="geometry" />
        </mxCell>
        <mxCell id="Asm9NlB4osL4zCwBxvkR-6" style="edgeStyle=orthogonalEdgeStyle;rounded=0;orthogonalLoop=1;jettySize=auto;html=1;" edge="1" parent="1" source="Asm9NlB4osL4zCwBxvkR-2">
          <mxGeometry relative="1" as="geometry">
            <mxPoint x="190" y="300" as="targetPoint" />
          </mxGeometry>
        </mxCell>
        <mxCell id="Asm9NlB4osL4zCwBxvkR-2" value="h&lt;sub style=&quot;font-size: 13px;&quot;&gt;t&lt;/sub&gt;" style="ellipse;whiteSpace=wrap;html=1;aspect=fixed;fontFamily=Georgia;fontSize=13;fillColor=#99FFFF;shadow=1;strokeColor=none;" vertex="1" parent="1">
          <mxGeometry x="120" y="280" width="40" height="40" as="geometry" />
        </mxCell>
        <mxCell id="Asm9NlB4osL4zCwBxvkR-4" value="weight&lt;div style=&quot;font-size: 13px;&quot;&gt;&lt;br style=&quot;font-size: 13px;&quot;&gt;&lt;/div&gt;&lt;div style=&quot;font-size: 13px;&quot;&gt;bias&lt;/div&gt;" style="rounded=0;whiteSpace=wrap;html=1;fontFamily=Georgia;fontSize=13;fillColor=#FFFFCC;strokeColor=none;shadow=1;" vertex="1" parent="1">
          <mxGeometry x="190" y="200" width="60" height="120" as="geometry" />
        </mxCell>
        <mxCell id="Asm9NlB4osL4zCwBxvkR-9" value="" style="endArrow=classic;html=1;rounded=0;" edge="1" parent="1">
          <mxGeometry width="50" height="50" relative="1" as="geometry">
            <mxPoint x="250" y="300" as="sourcePoint" />
            <mxPoint x="290" y="300" as="targetPoint" />
          </mxGeometry>
        </mxCell>
        <mxCell id="Asm9NlB4osL4zCwBxvkR-10" style="edgeStyle=orthogonalEdgeStyle;rounded=0;orthogonalLoop=1;jettySize=auto;html=1;" edge="1" parent="1" source="Asm9NlB4osL4zCwBxvkR-11">
          <mxGeometry relative="1" as="geometry">
            <mxPoint x="360" y="220" as="targetPoint" />
          </mxGeometry>
        </mxCell>
        <mxCell id="Asm9NlB4osL4zCwBxvkR-11" value="x&lt;sub style=&quot;font-size: 13px;&quot;&gt;t+1&lt;/sub&gt;" style="ellipse;whiteSpace=wrap;html=1;aspect=fixed;fontFamily=Georgia;fontSize=13;fillColor=#99FFFF;shadow=1;strokeColor=none;" vertex="1" parent="1">
          <mxGeometry x="290" y="200" width="40" height="40" as="geometry" />
        </mxCell>
        <mxCell id="Asm9NlB4osL4zCwBxvkR-12" style="edgeStyle=orthogonalEdgeStyle;rounded=0;orthogonalLoop=1;jettySize=auto;html=1;" edge="1" parent="1" source="Asm9NlB4osL4zCwBxvkR-13">
          <mxGeometry relative="1" as="geometry">
            <mxPoint x="360" y="300" as="targetPoint" />
          </mxGeometry>
        </mxCell>
        <mxCell id="Asm9NlB4osL4zCwBxvkR-13" value="h&lt;sub style=&quot;font-size: 13px;&quot;&gt;t+1&lt;/sub&gt;" style="ellipse;whiteSpace=wrap;html=1;aspect=fixed;fontFamily=Georgia;fontSize=13;fillColor=#99FFFF;shadow=1;strokeColor=none;" vertex="1" parent="1">
          <mxGeometry x="290" y="280" width="40" height="40" as="geometry" />
        </mxCell>
        <mxCell id="Asm9NlB4osL4zCwBxvkR-14" value="weight&lt;div style=&quot;font-size: 13px;&quot;&gt;&lt;br style=&quot;font-size: 13px;&quot;&gt;&lt;/div&gt;&lt;div style=&quot;font-size: 13px;&quot;&gt;bias&lt;/div&gt;" style="rounded=0;whiteSpace=wrap;html=1;fontFamily=Georgia;fontSize=13;shadow=1;strokeColor=none;fillColor=#FFFFCC;" vertex="1" parent="1">
          <mxGeometry x="360" y="200" width="60" height="120" as="geometry" />
        </mxCell>
        <mxCell id="Asm9NlB4osL4zCwBxvkR-15" value="" style="endArrow=classic;html=1;rounded=0;" edge="1" parent="1">
          <mxGeometry width="50" height="50" relative="1" as="geometry">
            <mxPoint x="420" y="300" as="sourcePoint" />
            <mxPoint x="460" y="300" as="targetPoint" />
          </mxGeometry>
        </mxCell>
        <mxCell id="Asm9NlB4osL4zCwBxvkR-16" style="edgeStyle=orthogonalEdgeStyle;rounded=0;orthogonalLoop=1;jettySize=auto;html=1;" edge="1" parent="1" source="Asm9NlB4osL4zCwBxvkR-17">
          <mxGeometry relative="1" as="geometry">
            <mxPoint x="530" y="220" as="targetPoint" />
          </mxGeometry>
        </mxCell>
        <mxCell id="Asm9NlB4osL4zCwBxvkR-17" value="x&lt;sub style=&quot;font-size: 13px;&quot;&gt;t+2&lt;/sub&gt;" style="ellipse;whiteSpace=wrap;html=1;aspect=fixed;fontFamily=Georgia;fontSize=13;fillColor=#99FFFF;shadow=1;strokeColor=none;" vertex="1" parent="1">
          <mxGeometry x="460" y="200" width="40" height="40" as="geometry" />
        </mxCell>
        <mxCell id="Asm9NlB4osL4zCwBxvkR-18" style="edgeStyle=orthogonalEdgeStyle;rounded=0;orthogonalLoop=1;jettySize=auto;html=1;" edge="1" parent="1" source="Asm9NlB4osL4zCwBxvkR-19">
          <mxGeometry relative="1" as="geometry">
            <mxPoint x="530" y="300" as="targetPoint" />
          </mxGeometry>
        </mxCell>
        <mxCell id="Asm9NlB4osL4zCwBxvkR-19" value="h&lt;sub style=&quot;font-size: 13px;&quot;&gt;t+2&lt;/sub&gt;" style="ellipse;whiteSpace=wrap;html=1;aspect=fixed;fontFamily=Georgia;fontSize=13;fillColor=#99FFFF;shadow=1;strokeColor=none;" vertex="1" parent="1">
          <mxGeometry x="460" y="280" width="40" height="40" as="geometry" />
        </mxCell>
        <mxCell id="Asm9NlB4osL4zCwBxvkR-20" value="weight&lt;div style=&quot;font-size: 13px;&quot;&gt;&lt;br style=&quot;font-size: 13px;&quot;&gt;&lt;/div&gt;&lt;div style=&quot;font-size: 13px;&quot;&gt;bias&lt;/div&gt;" style="rounded=0;whiteSpace=wrap;html=1;fontFamily=Georgia;fontSize=13;shadow=1;strokeColor=none;fillColor=#FFFFCC;" vertex="1" parent="1">
          <mxGeometry x="530" y="200" width="60" height="120" as="geometry" />
        </mxCell>
        <mxCell id="Asm9NlB4osL4zCwBxvkR-21" value="" style="endArrow=classic;html=1;rounded=0;" edge="1" parent="1">
          <mxGeometry width="50" height="50" relative="1" as="geometry">
            <mxPoint x="590" y="300" as="sourcePoint" />
            <mxPoint x="630" y="300" as="targetPoint" />
          </mxGeometry>
        </mxCell>
        <mxCell id="Asm9NlB4osL4zCwBxvkR-22" value="h&lt;sub style=&quot;font-size: 13px;&quot;&gt;t+3&lt;/sub&gt;" style="ellipse;whiteSpace=wrap;html=1;aspect=fixed;fontFamily=Georgia;fontSize=13;shadow=1;strokeColor=none;fillColor=#CC99FF;" vertex="1" parent="1">
          <mxGeometry x="630" y="280" width="40" height="40" as="geometry" />
        </mxCell>
        <mxCell id="Asm9NlB4osL4zCwBxvkR-23" value="weight&lt;div style=&quot;font-size: 13px;&quot;&gt;&lt;br style=&quot;font-size: 13px;&quot;&gt;&lt;/div&gt;&lt;div style=&quot;font-size: 13px;&quot;&gt;bias&lt;/div&gt;" style="rounded=0;whiteSpace=wrap;html=1;fontFamily=Georgia;fontSize=13;strokeColor=none;shadow=1;fillColor=#CCFFCC;" vertex="1" parent="1">
          <mxGeometry x="710" y="240" width="60" height="80" as="geometry" />
        </mxCell>
        <mxCell id="Asm9NlB4osL4zCwBxvkR-24" value="" style="endArrow=classic;html=1;rounded=0;" edge="1" parent="1">
          <mxGeometry width="50" height="50" relative="1" as="geometry">
            <mxPoint x="670" y="299.5" as="sourcePoint" />
            <mxPoint x="710" y="299.5" as="targetPoint" />
          </mxGeometry>
        </mxCell>
        <mxCell id="Asm9NlB4osL4zCwBxvkR-25" value="" style="endArrow=classic;html=1;rounded=0;" edge="1" parent="1">
          <mxGeometry width="50" height="50" relative="1" as="geometry">
            <mxPoint x="770" y="280" as="sourcePoint" />
            <mxPoint x="810" y="280" as="targetPoint" />
          </mxGeometry>
        </mxCell>
        <mxCell id="Asm9NlB4osL4zCwBxvkR-26" value="&lt;span style=&quot;font-size: 13px;&quot;&gt;y&lt;/span&gt;&lt;sub style=&quot;font-size: 13px;&quot;&gt;t+3&lt;/sub&gt;" style="ellipse;whiteSpace=wrap;html=1;aspect=fixed;fontFamily=Georgia;fontSize=13;strokeColor=none;shadow=1;fillColor=#66FF66;" vertex="1" parent="1">
          <mxGeometry x="810" y="260" width="40" height="40" as="geometry" />
        </mxCell>
        <mxCell id="Asm9NlB4osL4zCwBxvkR-27" value="Recurrent Hidden Layer" style="text;html=1;align=center;verticalAlign=middle;resizable=0;points=[];autosize=1;strokeColor=none;fillColor=none;fontFamily=Georgia;" vertex="1" parent="1">
          <mxGeometry x="135" y="338" width="150" height="30" as="geometry" />
        </mxCell>
        <mxCell id="Asm9NlB4osL4zCwBxvkR-28" value="Recurrent Hidden Layer" style="text;html=1;align=center;verticalAlign=middle;resizable=0;points=[];autosize=1;strokeColor=none;fillColor=none;fontFamily=Georgia;" vertex="1" parent="1">
          <mxGeometry x="310" y="338" width="150" height="30" as="geometry" />
        </mxCell>
        <mxCell id="Asm9NlB4osL4zCwBxvkR-29" value="Recurrent Hidden Layer" style="text;html=1;align=center;verticalAlign=middle;resizable=0;points=[];autosize=1;strokeColor=none;fillColor=none;fontFamily=Georgia;" vertex="1" parent="1">
          <mxGeometry x="485" y="338" width="150" height="30" as="geometry" />
        </mxCell>
        <mxCell id="Asm9NlB4osL4zCwBxvkR-30" value="Feedforward Layer" style="text;html=1;align=center;verticalAlign=middle;resizable=0;points=[];autosize=1;strokeColor=none;fillColor=none;fontFamily=Georgia;" vertex="1" parent="1">
          <mxGeometry x="680" y="338" width="120" height="30" as="geometry" />
        </mxCell>
        <mxCell id="Asm9NlB4osL4zCwBxvkR-31" value="&lt;font style=&quot;font-size: 14px;&quot;&gt;&lt;b&gt;What&#39;s inside the Recurrent Operations&lt;/b&gt;&lt;/font&gt;" style="text;html=1;align=center;verticalAlign=middle;whiteSpace=wrap;rounded=0;fontFamily=Verdana;" vertex="1" parent="1">
          <mxGeometry x="245" y="160" width="470" height="30" as="geometry" />
        </mxCell>
      </root>
    </mxGraphModel>
  </diagram>
</mxfile>
